<svg width="120" height="120" viewBox="0 0 120 120" fill="none" xmlns="http://www.w3.org/2000/svg">
<rect width="120" height="120" rx="20" fill="#0088FF"/>
<path d="M60 22C62.1012 22 64.1818 22.2073 66.123 22.6094C68.064 23.0114 69.8279 23.6 71.3135 24.3428C72.7992 25.0856 73.9782 25.9679 74.7822 26.9385C75.5863 27.9091 76 28.9494 76 30C76 31.0506 75.5863 32.0909 74.7822 33.0615C73.9781 34.0321 72.7992 34.9144 71.3135 35.6572C69.8279 36.4 68.064 36.9886 66.123 37.3906C66.0004 37.416 65.8766 37.4381 65.7529 37.4619C67.9735 37.6648 70.1506 37.984 72.2461 38.418C76.1283 39.222 79.6556 40.4011 82.627 41.8867C85.5984 43.3725 87.9563 45.1359 89.5645 47.0771C91.1725 49.0183 92 51.0991 92 53.2002C91.9999 55.3013 91.1726 57.3821 89.5645 59.3232C87.9563 61.2644 85.5984 63.0279 82.627 64.5137C80.881 65.3866 78.9427 66.1526 76.8535 66.7998H100C100 71.0021 98.9653 75.1635 96.9551 79.0459C94.9449 82.9283 91.9985 86.4563 88.2842 89.4277C84.5699 92.3991 80.1605 94.7561 75.3076 96.3643C70.4546 97.9724 65.2529 98.7998 60 98.7998C54.7471 98.7998 49.5454 97.9724 44.6924 96.3643C39.8395 94.7561 35.4301 92.3991 31.7158 89.4277C28.0015 86.4563 25.0551 82.9283 23.0449 79.0459C21.0347 75.1635 20 71.0021 20 66.7998H60V22Z" fill="white"/>
</svg>

